<svg width="182" height="50" viewBox="0 0 182 50" fill="none" xmlns="http://www.w3.org/2000/svg">
<path d="M176.858 42.9497C175.598 42.9497 174.628 42.5925 173.947 41.8781C173.3 41.1298 172.977 40.0923 172.977 38.7656V21.3149C172.977 19.9543 173.3 18.9167 173.947 18.2024C174.628 17.454 175.598 17.0798 176.858 17.0798C178.084 17.0798 179.02 17.454 179.667 18.2024C180.348 18.9167 180.688 19.9543 180.688 21.3149V38.7656C180.688 40.0923 180.365 41.1298 179.718 41.8781C179.071 42.5925 178.118 42.9497 176.858 42.9497ZM176.858 12.8957C175.428 12.8957 174.322 12.5726 173.538 11.9263C172.789 11.2459 172.415 10.2935 172.415 9.06885C172.415 7.81022 172.789 6.85775 173.538 6.21143C174.322 5.53109 175.428 5.19092 176.858 5.19092C178.288 5.19092 179.377 5.53109 180.126 6.21143C180.876 6.85775 181.25 7.81022 181.25 9.06885C181.25 10.2935 180.876 11.2459 180.126 11.9263C179.377 12.5726 178.288 12.8957 176.858 12.8957Z" fill="#050A08"/>
<path d="M152.097 43.1028C149.986 43.1028 148.233 42.7116 146.837 41.9292C145.441 41.1468 144.403 39.9732 143.722 38.4084C143.075 36.8096 142.751 34.8367 142.751 32.4895V20.9578C142.751 19.6651 143.075 18.6956 143.722 18.0493C144.403 17.403 145.356 17.0798 146.582 17.0798C147.807 17.0798 148.761 17.403 149.441 18.0493C150.122 18.6956 150.463 19.6651 150.463 20.9578V32.6936C150.463 34.1903 150.769 35.3129 151.382 36.0613C151.995 36.7756 152.965 37.1328 154.293 37.1328C155.757 37.1328 156.949 36.6225 157.868 35.602C158.821 34.5475 159.298 33.1698 159.298 31.469V20.9578C159.298 19.6651 159.621 18.6956 160.268 18.0493C160.949 17.403 161.903 17.0798 163.128 17.0798C164.388 17.0798 165.341 17.403 165.988 18.0493C166.669 18.6956 167.01 19.6651 167.01 20.9578V39.0718C167.01 41.6911 165.767 43.0007 163.281 43.0007C162.056 43.0007 161.119 42.6605 160.473 41.9802C159.826 41.2999 159.502 40.3304 159.502 39.0718V35.6531L160.268 37.643C159.519 39.3779 158.447 40.7216 157.051 41.674C155.655 42.6265 154.004 43.1028 152.097 43.1028Z" fill="#050A08"/>
<path d="M116.362 43.0007C115.102 43.0007 114.132 42.6605 113.451 41.9802C112.804 41.2999 112.481 40.3304 112.481 39.0718V10.0383C112.481 8.74569 112.804 7.7762 113.451 7.12988C114.132 6.44954 115.102 6.10938 116.362 6.10938C117.588 6.10938 118.524 6.44954 119.171 7.12988C119.852 7.7762 120.192 8.74569 120.192 10.0383V22.1824H119.477C120.26 20.5155 121.418 19.2399 122.95 18.3555C124.516 17.437 126.287 16.9778 128.261 16.9778C130.27 16.9778 131.921 17.369 133.215 18.1514C134.509 18.8997 135.479 20.0563 136.126 21.6211C136.773 23.1518 137.096 25.1078 137.096 27.489V39.0718C137.096 40.3304 136.756 41.2999 136.075 41.9802C135.428 42.6605 134.475 43.0007 133.215 43.0007C131.989 43.0007 131.036 42.6605 130.355 41.9802C129.708 41.2999 129.385 40.3304 129.385 39.0718V27.8462C129.385 26.1113 129.061 24.8697 128.415 24.1213C127.802 23.3389 126.848 22.9477 125.555 22.9477C123.92 22.9477 122.61 23.458 121.622 24.4785C120.669 25.499 120.192 26.8597 120.192 28.5605V39.0718C120.192 41.6911 118.915 43.0007 116.362 43.0007Z" fill="#050A08"/>
<path d="M104.513 43.1028C101.483 43.1028 99.2192 42.2693 97.7212 40.6025C96.2231 38.9017 95.4741 36.3844 95.4741 33.0508V10.0383C95.4741 8.74569 95.7975 7.7762 96.4444 7.12988C97.1254 6.44954 98.0957 6.10938 99.3554 6.10938C100.581 6.10938 101.517 6.44954 102.164 7.12988C102.845 7.7762 103.186 8.74569 103.186 10.0383V32.7446C103.186 34.1393 103.475 35.1768 104.054 35.8572C104.667 36.5035 105.467 36.8266 106.454 36.8266C106.727 36.8266 106.982 36.8096 107.22 36.7756C107.459 36.7416 107.714 36.7246 107.986 36.7246C108.531 36.6566 108.905 36.8266 109.11 37.2348C109.348 37.609 109.467 38.3744 109.467 39.531C109.467 40.5515 109.263 41.3339 108.854 41.8781C108.446 42.3884 107.816 42.7286 106.965 42.8987C106.624 42.9327 106.233 42.9667 105.79 43.0007C105.348 43.0687 104.922 43.1028 104.513 43.1028Z" fill="#050A08"/>
<path d="M85.6902 42.9497C84.4305 42.9497 83.4601 42.5925 82.7792 41.8781C82.1323 41.1298 81.8089 40.0923 81.8089 38.7656V21.3149C81.8089 19.9543 82.1323 18.9167 82.7792 18.2024C83.4601 17.454 84.4305 17.0798 85.6902 17.0798C86.9159 17.0798 87.8521 17.454 88.499 18.2024C89.18 18.9167 89.5204 19.9543 89.5204 21.3149V38.7656C89.5204 40.0923 89.197 41.1298 88.5501 41.8781C87.9032 42.5925 86.9499 42.9497 85.6902 42.9497ZM85.6902 12.8957C84.2602 12.8957 83.1537 12.5726 82.3706 11.9263C81.6216 11.2459 81.2471 10.2935 81.2471 9.06885C81.2471 7.81022 81.6216 6.85775 82.3706 6.21143C83.1537 5.53109 84.2602 5.19092 85.6902 5.19092C87.1201 5.19092 88.2096 5.53109 88.9587 6.21143C89.7077 6.85775 90.0822 7.81022 90.0822 9.06885C90.0822 10.2935 89.7077 11.2459 88.9587 11.9263C88.2096 12.5726 87.1201 12.8957 85.6902 12.8957Z" fill="#050A08"/>
<path d="M51.9573 13.9098C48.2649 7.52011 42.1833 2.85761 35.0503 0.947996C27.9173 -0.961618 20.3172 0.0380814 13.922 3.72717C7.52668 7.41626 2.86011 13.4925 0.948825 20.6193C-0.962458 27.7461 0.0381142 35.3396 3.73043 41.7293L51.9573 13.9098Z" fill="#5130D3"/>
<path d="M31.0317 46.7416C25.2868 45.2036 20.2885 41.7123 16.8725 36.9096L60.7605 11.593C63.2166 16.9506 63.7438 23.0215 62.2045 28.7611C60.4577 35.2747 56.1925 40.8287 50.3464 44.201C44.5003 47.5733 37.5525 48.4873 31.0317 46.7416Z" stroke="#5130D3" stroke-width="4.78363"/>
</svg>
